<?xml version="1.0" encoding="UTF-8" standalone="no"?>
<!-- Created with Inkscape (http://www.inkscape.org/) -->

<svg
   width="512"
   height="512"
   viewBox="0 0 512 512"
   version="1.1"
   id="svg1"
   inkscape:version="1.3 (0e150ed6c4, 2023-07-21)"
   sodipodi:docname="icon.svg"
   inkscape:export-filename="icon.png"
   inkscape:export-xdpi="96"
   inkscape:export-ydpi="96"
   xmlns:inkscape="http://www.inkscape.org/namespaces/inkscape"
   xmlns:sodipodi="http://sodipodi.sourceforge.net/DTD/sodipodi-0.dtd"
   xmlns="http://www.w3.org/2000/svg"
   xmlns:svg="http://www.w3.org/2000/svg">
  <sodipodi:namedview
     id="namedview1"
     pagecolor="#505050"
     bordercolor="#eeeeee"
     borderopacity="1"
     inkscape:showpageshadow="0"
     inkscape:pageopacity="0"
     inkscape:pagecheckerboard="0"
     inkscape:deskcolor="#505050"
     inkscape:document-units="px"
     inkscape:zoom="0.70703125"
     inkscape:cx="432.0884"
     inkscape:cy="312.57459"
     inkscape:window-width="1920"
     inkscape:window-height="991"
     inkscape:window-x="-9"
     inkscape:window-y="-9"
     inkscape:window-maximized="1"
     inkscape:current-layer="layer1" />
  <defs
     id="defs1" />
  <g
     inkscape:label="Camada 1"
     inkscape:groupmode="layer"
     id="layer1">
    <rect
       style="fill:#000000;stroke:#000000;stroke-width:30;stroke-dasharray:none;paint-order:fill markers stroke"
       id="rect1"
       width="467.05411"
       height="339.93286"
       x="22.472946"
       y="86.033569"
       rx="33.003525"
       ry="33.003525" />
    <path
       style="color:#000000;fill:#ffffff;-inkscape-stroke:none;paint-order:fill markers stroke"
       d="m 445.9707,341.49023 v 29.39258 c 0,6.91223 -5.61422,12.6836 -13.96875,12.6836 h -30.14062 v 30 h 30.14062 c 23.74152,0 43.96875,-18.92316 43.96875,-42.6836 v -29.39258 z"
       id="path7" />
    <path
       style="color:#000000;fill:#ffffff;-inkscape-stroke:none;paint-order:fill markers stroke"
       d="m 79.998047,98.433594 c -23.741513,0 -43.96875,18.923156 -43.96875,42.683596 v 29.39258 h 30 v -29.39258 c 0,-6.91223 5.61422,-12.6836 13.96875,-12.6836 H 110.13867 V 98.433594 Z"
       id="rect2" />
    <g
       transform="matrix(0.3115464,0,0,0.3115464,96.488243,95.709377)"
       id="g7"
       style="fill:#333333;stroke:none">
      <g
         fill="#ffffff"
         id="g4"
         style="fill:#333333;stroke:none">
        <path
           d="m 105,673 v 33 q 407,354 814,0 v -33 z"
           id="path1"
           style="fill:#333333;stroke:none" />
        <path
           fill="#478cbf"
           d="m 105,673 152,14 q 12,1 15,14 l 4,67 132,10 8,-61 q 2,-11 15,-15 h 162 q 13,4 15,15 l 8,61 132,-10 4,-67 q 3,-13 15,-14 L 919,673 V 427 q 30,-39 56,-81 -35,-59 -83,-108 -43,20 -82,47 -40,-37 -88,-64 7,-51 8,-102 -59,-28 -123,-42 -26,43 -46,89 -49,-7 -98,0 -20,-46 -46,-89 -64,14 -123,42 1,51 8,102 -48,27 -88,64 -39,-27 -82,-47 -48,49 -83,108 26,42 56,81 z m 0,33 v 39 c 0,276 813,276 813,0 v -39 l -134,12 -5,69 q -2,10 -14,13 l -162,11 q -12,0 -16,-11 L 577,735 H 447 l -10,65 q -4,11 -16,11 L 259,800 q -12,-3 -14,-13 l -5,-69 z"
           id="path2"
           style="fill:#333333;stroke:none" />
        <path
           d="m 483,600 c 3,34 55,34 58,0 v -86 c -3,-34 -55,-34 -58,0 z"
           id="path3"
           style="fill:#333333;stroke:none" />
        <circle
           cx="725"
           cy="526"
           r="90"
           id="circle3"
           style="fill:#333333;stroke:none" />
        <circle
           cx="299"
           cy="526"
           r="90"
           id="circle4"
           style="fill:#333333;stroke:none" />
      </g>
      <g
         fill="#414042"
         id="g6"
         style="fill:#333333;stroke:none">
        <circle
           cx="307"
           cy="532"
           r="60"
           id="circle5"
           style="fill:#333333;stroke:none" />
        <circle
           cx="717"
           cy="532"
           r="60"
           id="circle6"
           style="fill:#333333;stroke:none" />
      </g>
    </g>
  </g>
</svg>
